<svg width="560" height="300" viewBox="0 0 560 300" fill="none" xmlns="http://www.w3.org/2000/svg">
  <rect x="1" y="1" width="558" height="298" rx="18" fill="#F0F0F2" stroke="#D2D2D7"/>
  <rect x="28" y="25" width="216" height="250" rx="10" fill="#FFFFFF" stroke="#E2E2E7"/>
  <rect x="48" y="48" width="82" height="8" rx="4" fill="#1D1D1F"/>
  <rect x="48" y="70" width="150" height="5" rx="2.5" fill="#C7C7CC"/>
  <rect x="48" y="91" width="62" height="6" rx="3" fill="#1D1D1F"/>
  <rect x="48" y="110" width="155" height="5" rx="2.5" fill="#D7D7DB"/>
  <rect x="48" y="124" width="174" height="5" rx="2.5" fill="#D7D7DB"/>
  <rect x="48" y="138" width="140" height="5" rx="2.5" fill="#D7D7DB"/>
  <rect x="94" y="119" width="64" height="15" rx="3" fill="#CFE7FF"/>
  <rect x="48" y="165" width="56" height="6" rx="3" fill="#1D1D1F"/>
  <rect x="48" y="184" width="164" height="5" rx="2.5" fill="#D7D7DB"/>
  <rect x="48" y="198" width="146" height="5" rx="2.5" fill="#D7D7DB"/>
  <rect x="132" y="193" width="53" height="15" rx="3" fill="#E7F5EA"/>

  <path d="M260 149H294" stroke="#A1A1A6" stroke-width="2" stroke-dasharray="4 5"/>
  <path d="M286 141L294 149L286 157" stroke="#A1A1A6" stroke-width="2"/>

  <rect x="314" y="25" width="218" height="250" rx="10" fill="#1D1D1F"/>
  <text x="336" y="55" fill="#A1A1A6" font-family="-apple-system,BlinkMacSystemFont,Arial,sans-serif" font-size="10" letter-spacing="1.2">ROLE SIGNALS</text>
  <text x="336" y="94" fill="#F5F5F7" font-family="-apple-system,BlinkMacSystemFont,Arial,sans-serif" font-size="34" font-weight="700">74%</text>
  <text x="414" y="92" fill="#A1A1A6" font-family="-apple-system,BlinkMacSystemFont,Arial,sans-serif" font-size="11">coverage</text>
  <rect x="336" y="113" width="172" height="7" rx="3.5" fill="#3A3A3C"/>
  <rect x="336" y="113" width="127" height="7" rx="3.5" fill="#0071E3"/>
  <text x="336" y="151" fill="#F5F5F7" font-family="-apple-system,BlinkMacSystemFont,Arial,sans-serif" font-size="11">MATCHED</text>
  <rect x="336" y="164" width="62" height="24" rx="12" fill="#F0F0F2"/>
  <text x="350" y="180" fill="#424245" font-family="-apple-system,BlinkMacSystemFont,Arial,sans-serif" font-size="10">React</text>
  <rect x="404" y="164" width="82" height="24" rx="12" fill="#F0F0F2"/>
  <text x="418" y="180" fill="#424245" font-family="-apple-system,BlinkMacSystemFont,Arial,sans-serif" font-size="10">TypeScript</text>
  <text x="336" y="215" fill="#F5F5F7" font-family="-apple-system,BlinkMacSystemFont,Arial,sans-serif" font-size="11">MISSING</text>
  <rect x="336" y="228" width="60" height="24" rx="12" fill="#E8F2FF"/>
  <text x="350" y="244" fill="#0066CC" font-family="-apple-system,BlinkMacSystemFont,Arial,sans-serif" font-size="10">AWS</text>
  <rect x="402" y="228" width="72" height="24" rx="12" fill="#E8F2FF"/>
  <text x="416" y="244" fill="#0066CC" font-family="-apple-system,BlinkMacSystemFont,Arial,sans-serif" font-size="10">Docker</text>
</svg>